<svg viewBox="0 0 172 34" fill="inherit" xmlns="http://www.w3.org/2000/svg">
    <g>
        <path d="M3.47178 29.6821H9.02465L14.0421 4.08131H24.122L24.8281 0.552565L0.706124 0.496338L0 4.08131H8.45387L3.47178 29.6821Z" fill="inherit" />
        <path d="M20.6796 24.1739C20.6796 23.6484 20.8149 22.7158 21.0719 21.3819L23.5374 8.8374H18.3906L15.7112 22.4289C15.4548 23.5664 15.3057 24.725 15.266 25.8897C15.266 27.2237 15.7112 28.2784 16.588 29.0598C17.4648 29.8063 18.6868 30.1843 20.2442 30.1843C23.4963 30.1843 26.5339 28.4064 29.3571 24.8505L28.4411 29.6822H33.6331L37.7188 8.8374H32.5248L30.94 16.7577C30.3829 19.5936 29.3414 21.9286 27.8154 23.7628C26.3194 25.5724 24.7352 26.4772 23.0628 26.4772C21.474 26.4759 20.6796 25.7081 20.6796 24.1739Z" fill="inherit" />
        <path d="M50.8821 26.3065C49.6778 26.6943 48.6912 26.8882 47.9399 26.8882C46.5787 26.8882 45.8981 26.2212 45.8981 24.8873C45.8981 24.3909 46.0589 23.3362 46.3825 21.7192L48.4048 11.6371H53.6909L54.2205 8.84507H48.9442L50.176 2.54956L44.8055 3.80013L43.8366 8.84119H41.0631L40.5335 11.6332H43.2207L41.1906 22.1341C40.7499 24.4155 40.5289 25.7501 40.5276 26.1378C40.5276 28.8368 42.2308 30.1849 45.6372 30.1823C47.5501 30.1727 49.4409 29.7776 51.194 29.0209L50.8821 26.3065Z" fill="inherit" />
        <path d="M97.9178 9.9212C96.8037 8.86387 95.6732 8.33521 94.5264 8.33521C93.2345 8.33521 91.9269 9.14049 90.6035 10.751L88.9304 12.7985L89.7248 8.83738H84.4897L80.4373 29.6821H85.6332L87.3534 20.9262C87.8529 18.4561 88.5126 16.6219 89.3325 15.4237C90.3623 13.9754 91.6647 13.2561 93.2554 13.2561C93.978 13.2717 94.6923 13.4122 95.3659 13.671L97.9178 9.9212Z" fill="inherit" />
        <path d="M102.961 21.6804H112.429L113.4 29.6821H119.088L114.5 0.496338H110.449L93.3652 29.6821H98.465L102.961 21.6804ZM110.934 6.50295C111.048 9.64391 111.414 13.5061 112.032 18.0896H104.812C107.341 13.5604 109.382 9.6982 110.934 6.50295Z" fill="inherit" />
        <path d="M138.479 28.3501C140.016 27.6629 141.339 26.5818 142.311 25.2188C143.233 23.9418 143.725 22.4112 143.72 20.8428C143.72 19.0332 143.148 17.5182 142.003 16.2981C140.944 15.1606 139.388 14.4497 137.335 14.1653C142.239 12.9438 144.69 10.4562 144.689 6.7026C144.689 4.58923 143.839 2.94895 142.139 1.78175C141.223 1.14192 140.064 0.739286 138.661 0.573836C138.045 0.516963 136.782 0.488525 134.872 0.488525H127.614L121.877 29.6821H129.527C133.554 29.6821 136.538 29.2381 138.479 28.3501ZM132.447 3.92031H134.213C135.682 3.92031 136.706 4.0192 137.294 4.21308C138.587 4.65644 139.234 5.74027 139.234 7.46457C139.234 9.13329 138.632 10.4259 137.427 11.3423C136.219 12.2594 134.507 12.717 132.277 12.717H130.77L132.447 3.92031ZM130.072 16.1352H132.182C134.007 16.1352 135.266 16.3562 135.97 16.8022C137.29 17.6378 137.951 18.9116 137.951 20.6372C137.951 22.4714 137.276 23.9165 135.927 24.9725C134.75 25.8903 132.798 26.3491 130.072 26.3491H128.083L130.072 16.1352Z" fill="inherit" />
        <path d="M77.3265 15.922C77.0137 15.8712 76.6937 15.8857 76.387 15.9645C76.0803 16.0433 75.7936 16.1847 75.5455 16.3796C75.3023 14.2429 74.4778 12.4514 73.0721 11.005C71.3957 9.22257 69.2525 8.33263 66.6424 8.33521C63.2086 8.33521 60.2585 9.54442 57.7923 11.9628C56.6131 13.0827 55.6798 14.4307 55.0508 15.9228C54.4217 17.4149 54.1104 19.0191 54.1362 20.6354C54.1362 23.4157 55.0175 25.7088 56.7802 27.5145C58.5691 29.2944 60.8437 30.1843 63.6041 30.1843C66.9229 30.1843 69.7559 28.9757 72.1031 26.5586C72.9907 25.6514 73.7353 24.6174 74.3117 23.4913C74.4145 23.6431 74.5343 23.7829 74.6687 23.9082C73.4094 27.2043 71.2891 29.1238 69.208 30.3065C68.0533 30.9464 66.8114 31.4185 65.5205 31.7083C64.885 31.3573 63.8728 31.1266 62.7274 31.1266C60.7992 31.1266 59.234 31.7684 59.234 32.5614C59.234 33.3544 60.8032 34.0019 62.7274 34.0019C64.4927 34.0019 65.9441 33.461 66.1795 32.7611C67.4431 32.4411 68.659 31.9594 69.7964 31.3283C72.0521 30.0777 74.3549 27.941 75.7318 24.4608C75.7553 24.4608 75.7769 24.4743 75.8005 24.4782C77.1205 24.707 78.4072 23.7027 78.6681 22.2156L79.2369 19.0223C79.5017 17.541 78.6544 16.1527 77.3265 15.922ZM67.5682 25.3022C66.4796 26.5858 65.2517 27.2217 63.867 27.2217C61.0778 27.2217 59.6838 25.1536 59.6851 21.0173C59.6851 18.4076 60.3167 16.1417 61.5799 14.2197C62.8418 12.2808 64.324 11.3114 66.0265 11.3114C68.7242 11.3114 70.0743 13.2567 70.0769 17.1474C70.0769 20.6128 69.2407 23.3311 67.5682 25.3022Z" fill="inherit" />
        <path d="M164.39 4.12589C166.089 4.12589 167.88 4.51367 169.762 5.28922L172 2.24713C169.658 0.744507 166.998 -0.00195312 164.038 -0.00195312C159.103 -0.00195312 154.934 1.59632 151.53 4.79287C148.126 7.98941 146.427 11.9072 146.43 16.5463C146.43 20.91 147.942 24.3573 150.965 26.8882C153.581 29.0856 156.84 30.1843 160.743 30.1843C163.353 30.183 165.938 29.688 168.36 28.7263L167.161 25.1432C165.492 25.7311 163.735 26.0416 161.963 26.0623C159.086 26.0623 156.77 25.1575 155.014 23.3478C153.28 21.5382 152.412 19.134 152.409 16.1352C152.409 12.6608 153.511 9.79709 155.714 7.54412C157.946 5.2653 160.838 4.12589 164.39 4.12589Z" fill="inherit" />
    </g>
</svg>